<!DOCTYPE svg PUBLIC "-//W3C//DTD SVG 1.1//EN" "http://www.w3.org/Graphics/SVG/1.1/DTD/svg11.dtd">
<!-- Uploaded to: SVG Repo, www.svgrepo.com, Transformed by: SVG Repo Mixer Tools -->
<svg height="800px" width="800px" version="1.1" id="Layer_1" xmlns="http://www.w3.org/2000/svg" xmlns:xlink="http://www.w3.org/1999/xlink" viewBox="0 0 511.999 511.999" xml:space="preserve" fill="#000000">
<g id="SVGRepo_bgCarrier" stroke-width="0"/>
<g id="SVGRepo_tracerCarrier" stroke-linecap="round" stroke-linejoin="round"/>
<g id="SVGRepo_iconCarrier"> <path style="fill:#d1003f;" d="M224.161,474.166l-176.7-176.7C-53.211,196.794,16.891,25.161,158.152,24.639 c0.201-0.001,0.406-0.001,0.607-0.001c35.657,0,69.502,11.64,97.234,33.146c27.889-21.627,62.013-33.255,97.84-33.145 c141.181,0.522,211.433,172.085,110.691,272.828l-176.7,176.7C270.233,491.759,241.757,491.762,224.161,474.166z"/> <g> <circle style="fill:#003233;" cx="115.866" cy="196.567" r="34.777"/> <circle style="fill:#003233;" cx="158.784" cy="266.682" r="18.177"/> <path style="fill:#003233;" d="M353.833,24.639c-35.827-0.111-69.953,11.518-97.84,33.145v429.569 c25.344,0,17.491,1.155,208.532-189.886C565.193,196.798,495.102,25.159,353.833,24.639z"/> </g> </g>
</svg>